<svg width="128" height="128" viewBox="0 0 128 128" fill="none" xmlns="http://www.w3.org/2000/svg">
<rect width="128" height="128" fill="black"/>
<path d="M8.27245 64.2633C8.54489 72.8908 8.63571 73.6173 10.3612 73.6173C11.8143 73.6173 12.2683 72.8908 12.45 69.7122L12.7224 65.898L33.7916 66.0796L54.8608 66.352L55.3149 69.9847C55.6782 72.5275 56.2231 73.7081 57.4037 73.8897C58.8567 74.1622 59.0384 73.6173 58.7659 68.9857C58.4027 61.448 58.3118 61.3572 33.3375 61.3572H12.6316V58.1786C12.6316 55.3634 12.3591 55.0001 10.3612 55.0001H8L8.27245 64.2633Z" fill="white"/>
<path d="M72.6248 55.5644C69.8095 56.5634 68.9922 58.9246 68.9922 66.4623C68.9922 73.3643 69.1738 74 70.8085 74C72.2615 74 72.6248 73.3643 72.6248 71.2755V68.5511H88.9716C104.683 68.5511 105.318 68.4602 105.318 66.7348C105.318 65.0093 104.683 64.9184 88.9716 64.9184C73.987 64.9184 72.6248 64.8276 72.6248 63.2838C72.7156 59.6511 73.2605 59.4695 96.6909 59.2879C118.668 59.0154 119.395 58.9246 119.395 57.1991C119.395 55.4736 118.759 55.3828 96.6909 55.2012C84.2492 55.1104 73.3513 55.292 72.6248 55.5644Z" fill="white"/>
</svg>
