<svg width="199" height="12" viewBox="0 0 199 12" fill="none" xmlns="http://www.w3.org/2000/svg">
<path d="M101.361 0.342347C100.39 1.3133 101.256 2.83908 102.713 2.63102C103.753 2.49231 104.343 1.48668 103.857 0.689116C103.372 -0.0390983 101.95 -0.247159 101.361 0.342347Z" fill="white"/>
<path d="M108.296 0.342347C107.325 1.3133 108.192 2.83908 109.648 2.63102C110.689 2.49231 111.278 1.48668 110.793 0.689116C110.307 -0.0390983 108.885 -0.247159 108.296 0.342347Z" fill="white"/>
<path d="M180.181 4.15681C179.071 4.78099 178.967 5.12776 178.967 8.31803C178.967 11.1269 179.037 11.3696 179.661 11.3696C180.285 11.3696 180.354 11.1269 180.354 8.83818C180.354 7.48579 180.493 6.13339 180.632 5.92533C180.84 5.61324 183.163 5.47453 189.544 5.40517C197.936 5.30114 198.213 5.26647 198.213 4.60761C198.213 3.94875 197.97 3.91407 189.544 3.84472C183.545 3.77536 180.666 3.87939 180.181 4.15681Z" fill="white"/>
<path d="M0.104031 7.62449C0.208061 10.9188 0.242738 11.1962 0.901599 11.1962C1.45643 11.1962 1.62981 10.9188 1.69917 9.7051L1.8032 8.24868L9.84823 8.31803L17.8933 8.42206L18.0666 9.80914C18.2054 10.7801 18.4134 11.2309 18.8642 11.3002C19.419 11.4043 19.4884 11.1962 19.3844 9.42769C19.2457 6.54951 19.211 6.51483 9.67485 6.51483H1.76852V5.30114C1.76852 4.22616 1.66449 4.08745 0.901599 4.08745H0L0.104031 7.62449Z" fill="white"/>
<path d="M22.7133 4.57293C20.6674 5.47453 20.3206 8.69948 22.0891 10.364C22.9561 11.1615 23.1295 11.1962 30.1689 11.3002C34.4341 11.3696 37.7284 11.2656 38.2486 11.0575C40.4332 10.2253 41.0921 6.82693 39.3929 5.16244L38.526 4.26084L31.1398 4.19149C25.4528 4.12213 23.5456 4.19149 22.7133 4.57293ZM38.3179 6.58419C39.0461 7.6245 39.0115 8.10997 38.1792 8.94222C37.5204 9.60108 37.0349 9.63576 30.585 9.63576C23.0948 9.63576 22.5746 9.49705 22.5746 7.72853C22.5746 5.92533 23.0948 5.8213 30.7237 5.8213C37.6244 5.8213 37.7978 5.8213 38.3179 6.58419Z" fill="white"/>
<path d="M41.647 7.17369C41.647 10.468 41.9244 11.1615 43.4848 11.543C43.901 11.647 47.9928 11.6817 52.5702 11.647C60.6152 11.543 60.8926 11.5083 60.8926 10.8494C60.8926 10.1906 60.6152 10.1559 52.1887 10.0519L43.4502 9.98252L43.2768 9.04624C43.1728 8.56077 43.1381 7.24305 43.1728 6.09871C43.2074 4.22616 43.1381 4.08745 42.4445 4.08745C41.6816 4.08745 41.647 4.19148 41.647 7.17369Z" fill="white"/>
<path d="M55.3096 4.57293C54.8935 5.64791 55.5523 5.8213 59.6789 5.8213C64.2562 5.8213 64.1869 5.78662 64.1869 8.38738C64.1869 11.0228 64.499 11.1962 69.8045 11.1962C74.1738 11.1962 74.4165 11.1615 74.4165 10.5027C74.4165 9.84381 74.1391 9.80914 70.2553 9.70511C67.4812 9.63575 66.0247 9.46237 65.8514 9.18495C65.7126 8.94221 65.5739 8.04062 65.5739 7.17369C65.5739 4.43422 65.2619 4.26084 60.0603 4.15681C56.2112 4.05278 55.483 4.12213 55.3096 4.57293Z" fill="white"/>
<path d="M77.3641 4.33019C76.2891 4.71164 75.9771 5.61324 75.9771 8.49142C75.9771 11.1269 76.0464 11.3696 76.6706 11.3696C77.2254 11.3696 77.3641 11.1269 77.3641 10.3293V9.28898H83.606C89.6051 9.28898 89.8478 9.25431 89.8478 8.59545C89.8478 7.93659 89.6051 7.90191 83.606 7.90191C77.8843 7.90191 77.3641 7.86723 77.3641 7.27773C77.3988 5.89065 77.6069 5.8213 86.5535 5.75194C94.9453 5.64791 95.2227 5.61324 95.2227 4.95438C95.2227 4.29551 94.98 4.26084 86.5535 4.19148C81.8028 4.15681 77.6415 4.22616 77.3641 4.33019Z" fill="white"/>
<path d="M98.3089 4.43422C96.6444 5.09308 95.9856 7.34708 96.7831 9.46237C97.3727 11.0575 98.9331 11.4043 105.036 11.3002C110.203 11.1962 110.481 11.1615 110.481 10.5027C110.481 9.84381 110.203 9.80914 104.689 9.63575C98.5517 9.46237 98.1009 9.32366 98.1009 7.7632C98.1009 5.89065 98.3089 5.8213 106.285 5.8213C111.555 5.8213 113.74 5.92533 114.052 6.23742C114.295 6.48016 114.468 7.62449 114.468 9.01157C114.468 11.1269 114.538 11.3696 115.162 11.3696C115.786 11.3696 115.855 11.1269 115.855 8.49142C115.855 5.43985 115.751 5.09308 114.572 4.4689C113.671 4.0181 99.4533 3.94875 98.3089 4.43422Z" fill="white"/>
<path d="M117.242 7.13902C117.242 11.8551 116.514 11.543 127.368 11.543C136.245 11.543 136.488 11.5083 136.488 10.8494C136.488 10.1906 136.211 10.1559 127.819 10.0519C121.438 9.98252 119.115 9.84381 118.907 9.53172C118.768 9.32366 118.63 7.97126 118.63 6.58419C118.63 4.33019 118.56 4.08745 117.936 4.08745C117.312 4.08745 117.242 4.33019 117.242 7.13902Z" fill="white"/>
<path d="M137.702 7.03498C137.702 9.73978 137.771 10.0865 138.569 10.8494L139.401 11.7164H148.278H157.121V10.8494V9.98252L148.382 9.91316L139.609 9.80913L139.505 6.93095C139.401 4.1568 139.401 4.08745 138.569 4.08745C137.702 4.08745 137.702 4.12213 137.702 7.03498Z" fill="white"/>
<path d="M159.964 4.6076C158.023 5.43985 157.502 8.49141 158.993 10.2253L159.826 11.1962H168.634C177.164 11.1962 177.407 11.1615 177.407 10.5027C177.407 9.84381 177.164 9.80914 169.084 9.73978C161.247 9.63575 160.727 9.60107 160.172 8.94221C159.548 8.14465 159.687 6.93096 160.519 6.23742C160.935 5.92533 163.051 5.8213 168.46 5.8213C174.737 5.8213 175.846 5.89065 175.846 6.34145C175.846 6.75757 174.841 6.8616 169.709 6.93096C163.814 7.03499 163.536 7.06966 163.536 7.72852C163.536 8.38738 163.814 8.42206 169.258 8.52609C172.413 8.56077 175.326 8.52609 175.742 8.42206C177.684 7.97126 178.17 5.99468 176.679 4.81567C175.812 4.12213 175.326 4.08745 168.426 4.08745C162.912 4.12213 160.831 4.22616 159.964 4.6076Z" fill="white"/>
</svg>
